<svg width="173" height="40" viewBox="0 0 173 40" fill="none" xmlns="http://www.w3.org/2000/svg">
<path d="M43.52 15.73L41.05 8.87L42.22 8.73L44.33 14.85L46.44 8.73L47.61 8.87L45.06 15.93C44.98 15.9567 44.8067 15.9867 44.54 16.02C44.28 16.0533 44.0633 16.07 43.89 16.07C43.7167 16.07 43.5933 15.9567 43.52 15.73ZM52.2998 10.99V14.73C52.2998 14.9633 52.3264 15.12 52.3798 15.2C52.4331 15.2733 52.5631 15.31 52.7698 15.31L52.8098 15.94C52.6431 16 52.4664 16.03 52.2798 16.03C51.7598 16.03 51.4498 15.7933 51.3498 15.32C50.9964 15.8533 50.4731 16.12 49.7798 16.12C49.0931 16.12 48.5798 15.8633 48.2398 15.35C47.9064 14.8367 47.7398 14.1767 47.7398 13.37C47.7398 12.5567 47.9698 11.8833 48.4298 11.35C48.8898 10.81 49.5064 10.54 50.2798 10.54C50.5931 10.54 50.9564 10.59 51.3698 10.69C51.7898 10.7833 52.0998 10.8833 52.2998 10.99ZM48.8798 13.45C48.8798 14.0967 48.9764 14.5633 49.1698 14.85C49.3698 15.1367 49.6564 15.28 50.0298 15.28C50.4031 15.28 50.6931 15.15 50.8998 14.89C51.1131 14.6233 51.2198 14.2967 51.2198 13.91V11.51C50.9598 11.4233 50.6631 11.38 50.3298 11.38C49.8231 11.38 49.4531 11.5633 49.2198 11.93C48.9931 12.2967 48.8798 12.8033 48.8798 13.45ZM54.3535 8.46L55.4335 8.32V14.35C55.4335 14.97 55.6102 15.28 55.9635 15.28C56.0502 15.28 56.2102 15.2567 56.4435 15.21L56.5735 15.95C56.5668 15.95 56.5368 15.96 56.4835 15.98C56.4368 16 56.3802 16.02 56.3135 16.04C56.1468 16.0933 55.9435 16.12 55.7035 16.12C55.2435 16.12 54.9035 15.9667 54.6835 15.66C54.4635 15.3467 54.3535 14.9167 54.3535 14.37V8.46ZM57.5859 8.46L58.6659 8.32V14.35C58.6659 14.97 58.8426 15.28 59.1959 15.28C59.2826 15.28 59.4426 15.2567 59.6759 15.21L59.8059 15.95C59.7993 15.95 59.7693 15.96 59.7159 15.98C59.6693 16 59.6126 16.02 59.5459 16.04C59.3793 16.0933 59.1759 16.12 58.9359 16.12C58.4759 16.12 58.1359 15.9667 57.9159 15.66C57.6959 15.3467 57.5859 14.9167 57.5859 14.37V8.46ZM64.3184 14.86L64.6884 15.54C64.575 15.6467 64.335 15.77 63.9684 15.91C63.6017 16.05 63.2084 16.12 62.7884 16.12C62.0417 16.12 61.4384 15.8933 60.9784 15.44C60.525 14.9867 60.2984 14.3067 60.2984 13.4C60.2984 12.9 60.3784 12.46 60.5384 12.08C60.6984 11.6933 60.905 11.3933 61.1584 11.18C61.6784 10.7533 62.2217 10.54 62.7884 10.54C63.3617 10.54 63.815 10.6867 64.1484 10.98C64.4884 11.2667 64.6584 11.62 64.6584 12.04C64.6584 12.5933 64.395 13.0467 63.8684 13.4C63.3417 13.7467 62.4984 13.92 61.3384 13.92C61.3384 14.2267 61.465 14.53 61.7184 14.83C61.9784 15.13 62.3584 15.28 62.8584 15.28C63.365 15.28 63.8517 15.14 64.3184 14.86ZM63.6884 12.13C63.6884 11.93 63.6117 11.7567 63.4584 11.61C63.3117 11.4567 63.1017 11.38 62.8284 11.38C62.3884 11.38 62.025 11.5467 61.7384 11.88C61.4584 12.2067 61.315 12.6367 61.3084 13.17C62.895 13.17 63.6884 12.8233 63.6884 12.13ZM66.2611 17.08C66.7144 17.2467 67.1811 17.33 67.6611 17.33C68.1411 17.33 68.5111 17.22 68.7711 17C69.0378 16.78 69.1711 16.3467 69.1711 15.7C68.7511 15.98 68.2611 16.12 67.7011 16.12C67.1411 16.12 66.7044 15.9333 66.3911 15.56C66.0778 15.18 65.9211 14.7133 65.9211 14.16V10.73L67.0011 10.59V13.96C67.0011 14.84 67.3511 15.28 68.0511 15.28C68.5911 15.28 68.9644 15.13 69.1711 14.83V10.73L70.2511 10.59V15.68C70.2511 16.4933 70.0378 17.1167 69.6111 17.55C69.1911 17.9833 68.5911 18.2 67.8111 18.2C67.3311 18.2 66.9711 18.1667 66.7311 18.1C66.4978 18.0333 66.3244 17.98 66.2111 17.94C66.1044 17.9067 66.0444 17.89 66.0311 17.89L66.2611 17.08ZM75.1343 16L75.4643 8.87C75.9176 8.78333 76.3576 8.74 76.7843 8.74C76.9176 8.74 77.0143 8.81333 77.0743 8.96L78.9843 14.18L80.8943 8.96C80.9543 8.81333 81.051 8.74 81.1843 8.74C81.6643 8.74 82.1043 8.78333 82.5043 8.87L82.8343 16H81.7443L81.5743 9.87L79.7443 15C79.1843 15.0933 78.7976 15.14 78.5843 15.14C78.371 15.14 78.2376 15.0667 78.1843 14.92L76.3943 9.87L76.2243 16H75.1343ZM86.6781 10.54C87.3315 10.54 87.8715 10.77 88.2981 11.23C88.7248 11.6833 88.9381 12.3533 88.9381 13.24C88.9381 14.1267 88.7181 14.83 88.2781 15.35C87.8448 15.8633 87.1915 16.12 86.3181 16.12C85.6648 16.12 85.1248 15.89 84.6981 15.43C84.2715 14.9633 84.0581 14.2867 84.0581 13.4C84.0581 12.5133 84.2748 11.8167 84.7081 11.31C85.1481 10.7967 85.8048 10.54 86.6781 10.54ZM85.1981 13.41C85.1981 14.0767 85.3081 14.5567 85.5281 14.85C85.7548 15.1367 86.0915 15.28 86.5381 15.28C86.9848 15.28 87.3048 15.1067 87.4981 14.76C87.6981 14.4133 87.7981 13.9067 87.7981 13.24C87.7981 12.5667 87.6848 12.09 87.4581 11.81C87.2381 11.5233 86.9315 11.38 86.5381 11.38C86.0381 11.38 85.6881 11.55 85.4881 11.89C85.2948 12.23 85.1981 12.7367 85.1981 13.41ZM90.418 12.36C90.418 11.76 90.358 11.22 90.238 10.74L91.078 10.63L91.328 11.28C91.748 10.7867 92.2213 10.54 92.748 10.54C93.1013 10.54 93.3746 10.6233 93.568 10.79C93.768 10.9567 93.868 11.1933 93.868 11.5C93.868 11.8067 93.818 12.0767 93.718 12.31L92.858 12.2C92.858 11.9 92.828 11.69 92.768 11.57C92.7146 11.4433 92.598 11.38 92.418 11.38C92.2446 11.38 92.0713 11.45 91.898 11.59C91.7313 11.73 91.598 11.8867 91.498 12.06V16H90.418V12.36ZM94.9297 12.36C94.9297 11.76 94.8697 11.22 94.7497 10.74L95.5897 10.63L95.7797 11.13C96.3397 10.7367 96.913 10.54 97.4997 10.54C98.713 10.54 99.3197 11.1933 99.3197 12.5V16H98.2397V12.7C98.2397 11.82 97.8897 11.38 97.1897 11.38C96.783 11.38 96.3897 11.5233 96.0097 11.81V16H94.9297V12.36ZM101.691 8.4C101.858 8.4 101.998 8.45333 102.111 8.56C102.224 8.66 102.281 8.81333 102.281 9.02C102.281 9.45333 102.054 9.67 101.601 9.67C101.441 9.67 101.308 9.62 101.201 9.52C101.094 9.41333 101.041 9.26 101.041 9.06C101.041 8.62 101.258 8.4 101.691 8.4ZM101.121 16V10.73L102.201 10.59V16H101.121ZM104.197 12.36C104.197 11.76 104.137 11.22 104.017 10.74L104.857 10.63L105.047 11.13C105.607 10.7367 106.181 10.54 106.767 10.54C107.981 10.54 108.587 11.1933 108.587 12.5V16H107.507V12.7C107.507 11.82 107.157 11.38 106.457 11.38C106.051 11.38 105.657 11.5233 105.277 11.81V16H104.197V12.36ZM114.429 11.02V15.68C114.429 16.4933 114.215 17.1167 113.789 17.55C113.369 17.9833 112.769 18.2 111.989 18.2C111.509 18.2 111.149 18.1667 110.909 18.1C110.675 18.0333 110.502 17.98 110.389 17.94C110.282 17.9067 110.222 17.89 110.209 17.89L110.439 17.08C110.892 17.2467 111.292 17.33 111.639 17.33C111.985 17.33 112.245 17.31 112.419 17.27C112.592 17.23 112.755 17.15 112.909 17.03C113.202 16.8033 113.349 16.31 113.349 15.55V15.39C113.229 15.5767 113.045 15.7467 112.799 15.9C112.552 16.0467 112.255 16.12 111.909 16.12C111.335 16.12 110.852 15.9033 110.459 15.47C110.065 15.0367 109.869 14.3733 109.869 13.48C109.869 12.58 110.082 11.8667 110.509 11.34C110.935 10.8067 111.579 10.54 112.439 10.54C113.112 10.54 113.775 10.7 114.429 11.02ZM111.009 13.38C111.009 14.08 111.109 14.5733 111.309 14.86C111.509 15.14 111.795 15.28 112.169 15.28C112.549 15.28 112.839 15.1467 113.039 14.88C113.245 14.6133 113.349 14.2967 113.349 13.93V11.51C113.109 11.4233 112.829 11.38 112.509 11.38C111.969 11.38 111.582 11.54 111.349 11.86C111.122 12.1733 111.009 12.68 111.009 13.38ZM118.824 15.54L119.174 14.61C119.861 14.9833 120.434 15.17 120.894 15.17C121.354 15.17 121.704 15.08 121.944 14.9C122.184 14.72 122.304 14.4733 122.304 14.16C122.304 13.8133 122.151 13.5367 121.844 13.33C121.671 13.2167 121.524 13.1333 121.404 13.08C121.291 13.0267 121.111 12.95 120.864 12.85C120.624 12.7433 120.438 12.66 120.304 12.6C120.171 12.5333 120.011 12.44 119.824 12.32C119.644 12.1933 119.504 12.0667 119.404 11.94C119.144 11.6267 119.014 11.2467 119.014 10.8C119.014 10.18 119.228 9.67667 119.654 9.29C120.088 8.90333 120.631 8.71 121.284 8.71C121.684 8.71 122.071 8.77667 122.444 8.91C122.818 9.04333 123.104 9.17667 123.304 9.31L122.904 10.18C122.251 9.84 121.741 9.67 121.374 9.67C121.008 9.67 120.714 9.76 120.494 9.94C120.274 10.1133 120.164 10.3433 120.164 10.63C120.164 10.95 120.308 11.2067 120.594 11.4C120.834 11.56 121.111 11.7067 121.424 11.84C121.738 11.9733 121.958 12.07 122.084 12.13C122.218 12.19 122.384 12.2867 122.584 12.42C122.784 12.5533 122.938 12.6867 123.044 12.82C123.311 13.1667 123.444 13.5733 123.444 14.04C123.444 14.7133 123.204 15.23 122.724 15.59C122.251 15.9433 121.628 16.12 120.854 16.12C120.081 16.12 119.404 15.9267 118.824 15.54ZM125.377 9.59L126.227 9.48V10.85H127.777L127.657 11.57H126.227V14.25C126.227 14.61 126.28 14.8733 126.387 15.04C126.5 15.2 126.674 15.28 126.907 15.28C127.14 15.28 127.404 15.2533 127.697 15.2L127.827 15.93C127.414 16.0567 127.014 16.12 126.627 16.12C126.087 16.12 125.704 15.9767 125.477 15.69C125.257 15.4033 125.147 14.9967 125.147 14.47V11.57H124.397V10.95L125.147 10.85L125.377 9.59ZM133.267 10.99V14.73C133.267 14.9633 133.293 15.12 133.347 15.2C133.4 15.2733 133.53 15.31 133.737 15.31L133.777 15.94C133.61 16 133.433 16.03 133.247 16.03C132.727 16.03 132.417 15.7933 132.317 15.32C131.963 15.8533 131.44 16.12 130.747 16.12C130.06 16.12 129.547 15.8633 129.207 15.35C128.873 14.8367 128.707 14.1767 128.707 13.37C128.707 12.5567 128.937 11.8833 129.397 11.35C129.857 10.81 130.473 10.54 131.247 10.54C131.56 10.54 131.923 10.59 132.337 10.69C132.757 10.7833 133.067 10.8833 133.267 10.99ZM129.847 13.45C129.847 14.0967 129.943 14.5633 130.137 14.85C130.337 15.1367 130.623 15.28 130.997 15.28C131.37 15.28 131.66 15.15 131.867 14.89C132.08 14.6233 132.187 14.2967 132.187 13.91V11.51C131.927 11.4233 131.63 11.38 131.297 11.38C130.79 11.38 130.42 11.5633 130.187 11.93C129.96 12.2967 129.847 12.8033 129.847 13.45ZM135.223 12.36C135.223 11.76 135.163 11.22 135.043 10.74L135.883 10.63L136.133 11.28C136.553 10.7867 137.026 10.54 137.553 10.54C137.906 10.54 138.179 10.6233 138.373 10.79C138.573 10.9567 138.673 11.1933 138.673 11.5C138.673 11.8067 138.623 12.0767 138.523 12.31L137.663 12.2C137.663 11.9 137.633 11.69 137.573 11.57C137.519 11.4433 137.403 11.38 137.223 11.38C137.049 11.38 136.876 11.45 136.703 11.59C136.536 11.73 136.403 11.8867 136.303 12.06V16H135.223V12.36Z" fill="white" fill-opacity="0.5"/>
<path d="M42.62 33V22.29C43.4 22.17 44.595 22.11 46.205 22.11C47.285 22.11 48.14 22.41 48.77 23.01C49.41 23.6 49.73 24.305 49.73 25.125C49.73 26.135 49.33 26.925 48.53 27.495C49.5 28.025 49.985 28.865 49.985 30.015C49.985 30.885 49.67 31.63 49.04 32.25C48.42 32.87 47.48 33.18 46.22 33.18C44.72 33.18 43.52 33.12 42.62 33ZM44.33 26.955H47.015C47.125 26.865 47.21 26.795 47.27 26.745C47.34 26.695 47.415 26.625 47.495 26.535C47.575 26.435 47.645 26.33 47.705 26.22C47.855 25.94 47.93 25.64 47.93 25.32C47.93 24.08 47.205 23.46 45.755 23.46C45.445 23.46 44.97 23.48 44.33 23.52V26.955ZM44.33 31.74C45.15 31.8 45.71 31.83 46.01 31.83C46.81 31.83 47.37 31.67 47.69 31.35C48.02 31.03 48.185 30.575 48.185 29.985C48.185 29.385 48.015 28.935 47.675 28.635C47.345 28.325 46.775 28.17 45.965 28.17H44.33V31.74ZM57.5498 31.29L58.1048 32.31C57.9348 32.47 57.5748 32.655 57.0248 32.865C56.4748 33.075 55.8848 33.18 55.2548 33.18C54.1348 33.18 53.2298 32.84 52.5398 32.16C51.8598 31.48 51.5198 30.46 51.5198 29.1C51.5198 28.35 51.6398 27.69 51.8798 27.12C52.1198 26.54 52.4298 26.09 52.8098 25.77C53.5898 25.13 54.4048 24.81 55.2548 24.81C56.1148 24.81 56.7948 25.03 57.2948 25.47C57.8048 25.9 58.0598 26.43 58.0598 27.06C58.0598 27.89 57.6648 28.57 56.8748 29.1C56.0848 29.62 54.8198 29.88 53.0798 29.88C53.0798 30.34 53.2698 30.795 53.6498 31.245C54.0398 31.695 54.6098 31.92 55.3598 31.92C56.1198 31.92 56.8498 31.71 57.5498 31.29ZM56.6048 27.195C56.6048 26.895 56.4898 26.635 56.2598 26.415C56.0398 26.185 55.7248 26.07 55.3148 26.07C54.6548 26.07 54.1098 26.32 53.6798 26.82C53.2598 27.31 53.0448 27.955 53.0348 28.755C55.4148 28.755 56.6048 28.235 56.6048 27.195ZM59.2639 32.595L59.6089 31.38C60.4289 31.74 61.1339 31.92 61.7239 31.92C62.7439 31.92 63.2539 31.575 63.2539 30.885C63.2539 30.345 62.7639 29.895 61.7839 29.535C61.4039 29.395 61.1189 29.285 60.9289 29.205C60.7389 29.115 60.5039 28.98 60.2239 28.8C59.6739 28.44 59.3989 27.9 59.3989 27.18C59.3989 26.45 59.6539 25.88 60.1639 25.47C60.6839 25.05 61.3839 24.84 62.2639 24.84C63.1539 24.84 63.9189 24.99 64.5589 25.29C64.6789 25.34 64.7439 25.365 64.7539 25.365L64.4389 26.58C63.7089 26.26 63.0589 26.1 62.4889 26.1C61.4889 26.1 60.9889 26.44 60.9889 27.12C60.9889 27.32 61.0389 27.475 61.1389 27.585C61.2489 27.685 61.3339 27.76 61.3939 27.81C61.4539 27.85 61.5539 27.905 61.6939 27.975C61.8339 28.035 61.9339 28.08 61.9939 28.11C62.0639 28.13 62.1889 28.175 62.3689 28.245C62.5489 28.315 62.7289 28.385 62.9089 28.455C63.0989 28.515 63.2939 28.6 63.4939 28.71C63.7039 28.82 63.9239 28.97 64.1539 29.16C64.6139 29.54 64.8439 30.12 64.8439 30.9C64.8439 31.43 64.6889 31.87 64.3789 32.22C63.8289 32.86 62.9089 33.18 61.6189 33.18C60.7589 33.18 59.9739 32.985 59.2639 32.595ZM67.663 23.385L68.938 23.22V25.275H71.263L71.083 26.355H68.938V30.375C68.938 30.915 69.018 31.31 69.178 31.56C69.348 31.8 69.608 31.92 69.958 31.92C70.308 31.92 70.703 31.88 71.143 31.8L71.338 32.895C70.718 33.085 70.118 33.18 69.538 33.18C68.728 33.18 68.153 32.965 67.813 32.535C67.483 32.105 67.318 31.495 67.318 30.705V26.355H66.193V25.425L67.318 25.275L67.663 23.385ZM77.9081 33V22.29C78.6881 22.17 79.8831 22.11 81.4931 22.11C82.5731 22.11 83.4281 22.41 84.0581 23.01C84.6981 23.6 85.0181 24.305 85.0181 25.125C85.0181 26.135 84.6181 26.925 83.8181 27.495C84.7881 28.025 85.2731 28.865 85.2731 30.015C85.2731 30.885 84.9581 31.63 84.3281 32.25C83.7081 32.87 82.7681 33.18 81.5081 33.18C80.0081 33.18 78.8081 33.12 77.9081 33ZM79.6181 26.955H82.3031C82.4131 26.865 82.4981 26.795 82.5581 26.745C82.6281 26.695 82.7031 26.625 82.7831 26.535C82.8631 26.435 82.9331 26.33 82.9931 26.22C83.1431 25.94 83.2181 25.64 83.2181 25.32C83.2181 24.08 82.4931 23.46 81.0431 23.46C80.7331 23.46 80.2581 23.48 79.6181 23.52V26.955ZM79.6181 31.74C80.4381 31.8 80.9981 31.83 81.2981 31.83C82.0981 31.83 82.6581 31.67 82.9781 31.35C83.3081 31.03 83.4731 30.575 83.4731 29.985C83.4731 29.385 83.3031 28.935 82.9631 28.635C82.6331 28.325 82.0631 28.17 81.2531 28.17H79.6181V31.74ZM93.6479 25.485V31.095C93.6479 31.445 93.6879 31.68 93.7679 31.8C93.8479 31.91 94.0429 31.965 94.3529 31.965L94.4129 32.91C94.1629 33 93.8979 33.045 93.6179 33.045C92.8379 33.045 92.3729 32.69 92.2229 31.98C91.6929 32.78 90.9079 33.18 89.8679 33.18C88.8379 33.18 88.0679 32.795 87.5579 32.025C87.0579 31.255 86.8079 30.265 86.8079 29.055C86.8079 27.835 87.1529 26.825 87.8429 26.025C88.5329 25.215 89.4579 24.81 90.6179 24.81C91.0879 24.81 91.6329 24.885 92.2529 25.035C92.8829 25.175 93.3479 25.325 93.6479 25.485ZM88.5179 29.175C88.5179 30.145 88.6629 30.845 88.9529 31.275C89.2529 31.705 89.6829 31.92 90.2429 31.92C90.8029 31.92 91.2379 31.725 91.5479 31.335C91.8679 30.935 92.0279 30.445 92.0279 29.865V26.265C91.6379 26.135 91.1929 26.07 90.6929 26.07C89.9329 26.07 89.3779 26.345 89.0279 26.895C88.6879 27.445 88.5179 28.205 88.5179 29.175ZM96.582 27.54C96.582 26.64 96.492 25.83 96.312 25.11L97.572 24.945L97.947 25.92C98.577 25.18 99.287 24.81 100.077 24.81C100.607 24.81 101.017 24.935 101.307 25.185C101.607 25.435 101.757 25.79 101.757 26.25C101.757 26.71 101.682 27.115 101.532 27.465L100.242 27.3C100.242 26.85 100.197 26.535 100.107 26.355C100.027 26.165 99.852 26.07 99.582 26.07C99.322 26.07 99.062 26.175 98.802 26.385C98.552 26.595 98.352 26.83 98.202 27.09V33H96.582V27.54ZM114.135 25.305V26.79H115.98L115.41 28.08H114.135V30.165C114.135 31.095 114.395 31.56 114.915 31.56C114.955 31.56 115.15 31.525 115.5 31.455L115.755 32.925C115.245 33.095 114.825 33.18 114.495 33.18C113.735 33.18 113.185 32.915 112.845 32.385C112.645 32.585 112.305 32.77 111.825 32.94C111.355 33.1 110.835 33.18 110.265 33.18C109.305 33.18 108.52 32.92 107.91 32.4C107.31 31.87 107.01 31.11 107.01 30.12C107.01 28.91 107.455 28.055 108.345 27.555V27.495C108.165 27.355 107.965 27.16 107.745 26.91C107.325 26.41 107.115 25.8 107.115 25.08C107.115 24.19 107.44 23.46 108.09 22.89C108.75 22.31 109.555 22.02 110.505 22.02C111.455 22.02 112.375 22.23 113.265 22.65L112.71 23.94C112 23.62 111.37 23.46 110.82 23.46C110.28 23.46 109.825 23.595 109.455 23.865C109.095 24.135 108.915 24.555 108.915 25.125C108.915 26.235 109.67 26.79 111.18 26.79H112.425L112.875 25.515L114.135 25.305ZM108.81 29.82C108.81 30.44 108.975 30.915 109.305 31.245C109.645 31.575 110.045 31.74 110.505 31.74C110.975 31.74 111.375 31.665 111.705 31.515C112.035 31.355 112.275 31.2 112.425 31.05V28.08H111.075C110.365 28.08 109.81 28.215 109.41 28.485C109.01 28.745 108.81 29.19 108.81 29.82ZM122.776 33V22.2H124.486V31.56H128.581L128.371 33H122.776ZM133.087 24.81C134.067 24.81 134.877 25.155 135.517 25.845C136.157 26.525 136.477 27.53 136.477 28.86C136.477 30.19 136.147 31.245 135.487 32.025C134.837 32.795 133.857 33.18 132.547 33.18C131.567 33.18 130.757 32.835 130.117 32.145C129.477 31.445 129.157 30.43 129.157 29.1C129.157 27.77 129.482 26.725 130.132 25.965C130.792 25.195 131.777 24.81 133.087 24.81ZM130.867 29.115C130.867 30.115 131.032 30.835 131.362 31.275C131.702 31.705 132.207 31.92 132.877 31.92C133.547 31.92 134.027 31.66 134.317 31.14C134.617 30.62 134.767 29.86 134.767 28.86C134.767 27.85 134.597 27.135 134.257 26.715C133.927 26.285 133.467 26.07 132.877 26.07C132.127 26.07 131.602 26.325 131.302 26.835C131.012 27.345 130.867 28.105 130.867 29.115ZM144.891 24.885V31.125C144.891 31.485 144.931 31.715 145.011 31.815C145.101 31.915 145.296 31.965 145.596 31.965L145.656 32.91C145.406 33 145.141 33.045 144.861 33.045C144.251 33.045 143.821 32.805 143.571 32.325C142.921 32.895 142.106 33.18 141.126 33.18C139.306 33.18 138.396 32.2 138.396 30.24V25.095L140.016 24.885V29.94C140.016 31.26 140.541 31.92 141.591 31.92C142.311 31.92 142.871 31.71 143.271 31.29V25.095L144.891 24.885ZM147.969 27.54C147.969 26.64 147.879 25.83 147.699 25.11L148.959 24.945L149.244 25.695C150.084 25.105 150.944 24.81 151.824 24.81C153.644 24.81 154.554 25.79 154.554 27.75V33H152.934V28.05C152.934 26.73 152.409 26.07 151.359 26.07C150.749 26.07 150.159 26.285 149.589 26.715V33H147.969V27.54ZM163.316 25.53V32.52C163.316 33.74 162.996 34.675 162.356 35.325C161.726 35.975 160.826 36.3 159.656 36.3C158.936 36.3 158.396 36.25 158.036 36.15C157.686 36.05 157.426 35.97 157.256 35.91C157.096 35.86 157.006 35.835 156.986 35.835L157.331 34.62C158.011 34.87 158.611 34.995 159.131 34.995C159.651 34.995 160.041 34.965 160.301 34.905C160.561 34.845 160.806 34.725 161.036 34.545C161.476 34.205 161.696 33.465 161.696 32.325V32.085C161.516 32.365 161.241 32.62 160.871 32.85C160.501 33.07 160.056 33.18 159.536 33.18C158.676 33.18 157.951 32.855 157.361 32.205C156.771 31.555 156.476 30.56 156.476 29.22C156.476 27.87 156.796 26.8 157.436 26.01C158.076 25.21 159.041 24.81 160.331 24.81C161.341 24.81 162.336 25.05 163.316 25.53ZM158.186 29.07C158.186 30.12 158.336 30.86 158.636 31.29C158.936 31.71 159.366 31.92 159.926 31.92C160.496 31.92 160.931 31.72 161.231 31.32C161.541 30.92 161.696 30.445 161.696 29.895V26.265C161.336 26.135 160.916 26.07 160.436 26.07C159.626 26.07 159.046 26.31 158.696 26.79C158.356 27.26 158.186 28.02 158.186 29.07ZM171.031 31.29L171.586 32.31C171.416 32.47 171.056 32.655 170.506 32.865C169.956 33.075 169.366 33.18 168.736 33.18C167.616 33.18 166.711 32.84 166.021 32.16C165.341 31.48 165.001 30.46 165.001 29.1C165.001 28.35 165.121 27.69 165.361 27.12C165.601 26.54 165.911 26.09 166.291 25.77C167.071 25.13 167.886 24.81 168.736 24.81C169.596 24.81 170.276 25.03 170.776 25.47C171.286 25.9 171.541 26.43 171.541 27.06C171.541 27.89 171.146 28.57 170.356 29.1C169.566 29.62 168.301 29.88 166.561 29.88C166.561 30.34 166.751 30.795 167.131 31.245C167.521 31.695 168.091 31.92 168.841 31.92C169.601 31.92 170.331 31.71 171.031 31.29ZM170.086 27.195C170.086 26.895 169.971 26.635 169.741 26.415C169.521 26.185 169.206 26.07 168.796 26.07C168.136 26.07 167.591 26.32 167.161 26.82C166.741 27.31 166.526 27.955 166.516 28.755C168.896 28.755 170.086 28.235 170.086 27.195Z" fill="white"/>
<circle cx="17.1983" cy="22.1987" r="12.4741" stroke="white"/>
<path d="M17.5 5L21.429 17.0922L34.1435 17.0922L23.8572 24.5656L27.7862 36.6578L17.5 29.1844L7.21376 36.6578L11.1428 24.5656L0.85651 17.0922L13.571 17.0922L17.5 5Z" fill="white"/>
</svg>
