<svg width="214" height="48" viewBox="0 0 214 48" fill="none" xmlns="http://www.w3.org/2000/svg">
<g filter="url(#filter0_d_353_1052)">
<path d="M46.85 15.75L45.3 8.87L46.49 8.73L47.75 15.18L48.85 10.58C48.8833 10.4333 48.9867 10.36 49.16 10.36C49.34 10.36 49.54 10.3767 49.76 10.41C49.98 10.4433 50.12 10.4733 50.18 10.5L51.33 15.14L52.57 8.73L53.76 8.87L52.15 15.93C52.0767 15.9633 51.8933 15.9933 51.6 16.02C51.3067 16.0533 51.0433 16.07 50.81 16.07C50.5833 16.07 50.4467 15.9633 50.4 15.75L49.53 11.78L48.61 15.93C48.5367 15.9633 48.35 15.9933 48.05 16.02C47.7567 16.0533 47.4933 16.07 47.26 16.07C47.0267 16.07 46.89 15.9633 46.85 15.75ZM55.9472 16H54.8672V8.46L55.9472 8.32V11.01C56.4739 10.6967 56.9905 10.54 57.4972 10.54C58.7105 10.54 59.3172 11.1933 59.3172 12.5V16H58.2372V12.7C58.2372 11.82 57.8872 11.38 57.1872 11.38C56.9205 11.38 56.6672 11.43 56.4272 11.53C56.1872 11.63 56.0272 11.7233 55.9472 11.81V16ZM63.2172 10.54C63.8705 10.54 64.4105 10.77 64.8372 11.23C65.2639 11.6833 65.4772 12.3533 65.4772 13.24C65.4772 14.1267 65.2572 14.83 64.8172 15.35C64.3839 15.8633 63.7305 16.12 62.8572 16.12C62.2039 16.12 61.6639 15.89 61.2372 15.43C60.8105 14.9633 60.5972 14.2867 60.5972 13.4C60.5972 12.5133 60.8139 11.8167 61.2472 11.31C61.6872 10.7967 62.3439 10.54 63.2172 10.54ZM61.7372 13.41C61.7372 14.0767 61.8472 14.5567 62.0672 14.85C62.2939 15.1367 62.6305 15.28 63.0772 15.28C63.5239 15.28 63.8439 15.1067 64.0372 14.76C64.2372 14.4133 64.3372 13.9067 64.3372 13.24C64.3372 12.5667 64.2239 12.09 63.9972 11.81C63.7772 11.5233 63.4705 11.38 63.0772 11.38C62.5772 11.38 62.2272 11.55 62.0272 11.89C61.8339 12.23 61.7372 12.7367 61.7372 13.41ZM66.477 9.36C66.477 9.29333 66.4437 9.2 66.377 9.08C66.317 8.96 66.287 8.85 66.287 8.75C66.287 8.65 66.3337 8.55333 66.427 8.46C66.5204 8.36667 66.647 8.32 66.807 8.32C66.9737 8.32 67.1004 8.37667 67.187 8.49C67.2737 8.60333 67.317 8.78333 67.317 9.03C67.317 9.27667 67.217 9.55333 67.017 9.86C66.817 10.1667 66.5504 10.41 66.217 10.59L65.977 10.3C66.3104 9.96667 66.477 9.65333 66.477 9.36ZM67.9181 15.73L68.1481 14.92C68.6948 15.16 69.1648 15.28 69.5581 15.28C70.2381 15.28 70.5781 15.05 70.5781 14.59C70.5781 14.23 70.2515 13.93 69.5981 13.69C69.3448 13.5967 69.1548 13.5233 69.0281 13.47C68.9015 13.41 68.7448 13.32 68.5581 13.2C68.1915 12.96 68.0081 12.6 68.0081 12.12C68.0081 11.6333 68.1781 11.2533 68.5181 10.98C68.8648 10.7 69.3315 10.56 69.9181 10.56C70.5115 10.56 71.0215 10.66 71.4481 10.86C71.5281 10.8933 71.5715 10.91 71.5781 10.91L71.3681 11.72C70.8815 11.5067 70.4481 11.4 70.0681 11.4C69.4015 11.4 69.0681 11.6267 69.0681 12.08C69.0681 12.2133 69.1015 12.3167 69.1681 12.39C69.2415 12.4567 69.2981 12.5067 69.3381 12.54C69.3781 12.5667 69.4448 12.6033 69.5381 12.65C69.6315 12.69 69.6981 12.72 69.7381 12.74C69.7848 12.7533 69.8681 12.7833 69.9881 12.83C70.1081 12.8767 70.2281 12.9233 70.3481 12.97C70.4748 13.01 70.6048 13.0667 70.7381 13.14C70.8781 13.2133 71.0248 13.3133 71.1781 13.44C71.4848 13.6933 71.6381 14.08 71.6381 14.6C71.6381 14.9533 71.5348 15.2467 71.3281 15.48C70.9615 15.9067 70.3481 16.12 69.4881 16.12C68.9148 16.12 68.3915 15.99 67.9181 15.73ZM76.8402 15.75L75.2902 8.87L76.4802 8.73L77.7402 15.18L78.8402 10.58C78.8736 10.4333 78.9769 10.36 79.1502 10.36C79.3302 10.36 79.5302 10.3767 79.7502 10.41C79.9702 10.4433 80.1102 10.4733 80.1702 10.5L81.3202 15.14L82.5602 8.73L83.7502 8.87L82.1402 15.93C82.0669 15.9633 81.8836 15.9933 81.5902 16.02C81.2969 16.0533 81.0336 16.07 80.8002 16.07C80.5736 16.07 80.4369 15.9633 80.3902 15.75L79.5202 11.78L78.6002 15.93C78.5269 15.9633 78.3402 15.9933 78.0402 16.02C77.7469 16.0533 77.4836 16.07 77.2502 16.07C77.0169 16.07 76.8802 15.9633 76.8402 15.75ZM85.9374 16H84.8574V8.46L85.9374 8.32V11.01C86.4641 10.6967 86.9808 10.54 87.4874 10.54C88.7008 10.54 89.3074 11.1933 89.3074 12.5V16H88.2274V12.7C88.2274 11.82 87.8774 11.38 87.1774 11.38C86.9108 11.38 86.6574 11.43 86.4174 11.53C86.1774 11.63 86.0174 11.7233 85.9374 11.81V16ZM93.2074 10.54C93.8608 10.54 94.4008 10.77 94.8274 11.23C95.2541 11.6833 95.4674 12.3533 95.4674 13.24C95.4674 14.1267 95.2474 14.83 94.8074 15.35C94.3741 15.8633 93.7208 16.12 92.8474 16.12C92.1941 16.12 91.6541 15.89 91.2274 15.43C90.8008 14.9633 90.5874 14.2867 90.5874 13.4C90.5874 12.5133 90.8041 11.8167 91.2374 11.31C91.6774 10.7967 92.3341 10.54 93.2074 10.54ZM91.7274 13.41C91.7274 14.0767 91.8374 14.5567 92.0574 14.85C92.2841 15.1367 92.6208 15.28 93.0674 15.28C93.5141 15.28 93.8341 15.1067 94.0274 14.76C94.2274 14.4133 94.3274 13.9067 94.3274 13.24C94.3274 12.5667 94.2141 12.09 93.9874 11.81C93.7674 11.5233 93.4608 11.38 93.0674 11.38C92.5674 11.38 92.2174 11.55 92.0174 11.89C91.8241 12.23 91.7274 12.7367 91.7274 13.41Z" fill="white" fill-opacity="0.5"/>
<path d="M46.62 33V22.29C47.4 22.17 48.595 22.11 50.205 22.11C51.285 22.11 52.115 22.42 52.695 23.04C53.275 23.65 53.565 24.435 53.565 25.395C53.565 26.055 53.405 26.64 53.085 27.15C52.765 27.65 52.305 28.03 51.705 28.29L52.71 30.63C52.89 31.04 53.115 31.36 53.385 31.59C53.655 31.81 53.945 31.92 54.255 31.92L54.015 33.09H53.655C53.195 33.09 52.74 32.97 52.29 32.73C51.85 32.48 51.52 32.11 51.3 31.62L49.95 28.635C49.87 28.645 49.74 28.65 49.56 28.65H48.33V33H46.62ZM48.33 27.33H50.85C50.99 27.28 51.145 27.16 51.315 26.97C51.615 26.63 51.765 26.14 51.765 25.5C51.765 24.14 51.125 23.46 49.845 23.46C49.405 23.46 48.9 23.485 48.33 23.535V27.33ZM61.5352 31.29L62.0902 32.31C61.9202 32.47 61.5602 32.655 61.0102 32.865C60.4602 33.075 59.8702 33.18 59.2402 33.18C58.1202 33.18 57.2152 32.84 56.5252 32.16C55.8452 31.48 55.5052 30.46 55.5052 29.1C55.5052 28.35 55.6252 27.69 55.8652 27.12C56.1052 26.54 56.4152 26.09 56.7952 25.77C57.5752 25.13 58.3902 24.81 59.2402 24.81C60.1002 24.81 60.7802 25.03 61.2802 25.47C61.7902 25.9 62.0452 26.43 62.0452 27.06C62.0452 27.89 61.6502 28.57 60.8602 29.1C60.0702 29.62 58.8052 29.88 57.0652 29.88C57.0652 30.34 57.2552 30.795 57.6352 31.245C58.0252 31.695 58.5952 31.92 59.3452 31.92C60.1052 31.92 60.8352 31.71 61.5352 31.29ZM60.5902 27.195C60.5902 26.895 60.4752 26.635 60.2452 26.415C60.0252 26.185 59.7102 26.07 59.3002 26.07C58.6402 26.07 58.0952 26.32 57.6652 26.82C57.2452 27.31 57.0302 27.955 57.0202 28.755C59.4002 28.755 60.5902 28.235 60.5902 27.195ZM63.2493 32.595L63.5943 31.38C64.4143 31.74 65.1193 31.92 65.7093 31.92C66.7293 31.92 67.2393 31.575 67.2393 30.885C67.2393 30.345 66.7493 29.895 65.7693 29.535C65.3893 29.395 65.1043 29.285 64.9143 29.205C64.7243 29.115 64.4893 28.98 64.2093 28.8C63.6593 28.44 63.3843 27.9 63.3843 27.18C63.3843 26.45 63.6393 25.88 64.1493 25.47C64.6693 25.05 65.3693 24.84 66.2493 24.84C67.1393 24.84 67.9043 24.99 68.5443 25.29C68.6643 25.34 68.7293 25.365 68.7393 25.365L68.4243 26.58C67.6943 26.26 67.0443 26.1 66.4743 26.1C65.4743 26.1 64.9743 26.44 64.9743 27.12C64.9743 27.32 65.0243 27.475 65.1243 27.585C65.2343 27.685 65.3193 27.76 65.3793 27.81C65.4393 27.85 65.5393 27.905 65.6793 27.975C65.8193 28.035 65.9193 28.08 65.9793 28.11C66.0493 28.13 66.1743 28.175 66.3543 28.245C66.5343 28.315 66.7143 28.385 66.8943 28.455C67.0843 28.515 67.2793 28.6 67.4793 28.71C67.6893 28.82 67.9093 28.97 68.1393 29.16C68.5993 29.54 68.8293 30.12 68.8293 30.9C68.8293 31.43 68.6743 31.87 68.3643 32.22C67.8143 32.86 66.8943 33.18 65.6043 33.18C64.7443 33.18 63.9593 32.985 63.2493 32.595ZM71.6483 23.385L72.9233 23.22V25.275H75.2483L75.0683 26.355H72.9233V30.375C72.9233 30.915 73.0033 31.31 73.1633 31.56C73.3333 31.8 73.5933 31.92 73.9433 31.92C74.2933 31.92 74.6883 31.88 75.1283 31.8L75.3233 32.895C74.7033 33.085 74.1033 33.18 73.5233 33.18C72.7133 33.18 72.1383 32.965 71.7983 32.535C71.4683 32.105 71.3033 31.495 71.3033 30.705V26.355H70.1783V25.425L71.3033 25.275L71.6483 23.385ZM83.4829 25.485V31.095C83.4829 31.445 83.5229 31.68 83.6029 31.8C83.6829 31.91 83.8779 31.965 84.1879 31.965L84.2479 32.91C83.9979 33 83.7329 33.045 83.4529 33.045C82.6729 33.045 82.2079 32.69 82.0579 31.98C81.5279 32.78 80.7429 33.18 79.7029 33.18C78.6729 33.18 77.9029 32.795 77.3929 32.025C76.8929 31.255 76.6429 30.265 76.6429 29.055C76.6429 27.835 76.9879 26.825 77.6779 26.025C78.3679 25.215 79.2929 24.81 80.4529 24.81C80.9229 24.81 81.4679 24.885 82.0879 25.035C82.7179 25.175 83.1829 25.325 83.4829 25.485ZM78.3529 29.175C78.3529 30.145 78.4979 30.845 78.7879 31.275C79.0879 31.705 79.5179 31.92 80.0779 31.92C80.6379 31.92 81.0729 31.725 81.3829 31.335C81.7029 30.935 81.8629 30.445 81.8629 29.865V26.265C81.4729 26.135 81.0279 26.07 80.5279 26.07C79.7679 26.07 79.2129 26.345 78.8629 26.895C78.5229 27.445 78.3529 28.205 78.3529 29.175ZM92.7585 24.885V31.125C92.7585 31.485 92.7985 31.715 92.8785 31.815C92.9685 31.915 93.1635 31.965 93.4635 31.965L93.5235 32.91C93.2735 33 93.0085 33.045 92.7285 33.045C92.1185 33.045 91.6885 32.805 91.4385 32.325C90.7885 32.895 89.9735 33.18 88.9935 33.18C87.1735 33.18 86.2635 32.2 86.2635 30.24V25.095L87.8835 24.885V29.94C87.8835 31.26 88.4085 31.92 89.4585 31.92C90.1785 31.92 90.7385 31.71 91.1385 31.29V25.095L92.7585 24.885ZM95.8359 27.54C95.8359 26.64 95.7459 25.83 95.5659 25.11L96.8259 24.945L97.2009 25.92C97.8309 25.18 98.5409 24.81 99.3309 24.81C99.8609 24.81 100.271 24.935 100.561 25.185C100.861 25.435 101.011 25.79 101.011 26.25C101.011 26.71 100.936 27.115 100.786 27.465L99.4959 27.3C99.4959 26.85 99.4509 26.535 99.3609 26.355C99.2809 26.165 99.1059 26.07 98.8359 26.07C98.5759 26.07 98.3159 26.175 98.0559 26.385C97.8059 26.595 97.6059 26.83 97.4559 27.09V33H95.8359V27.54ZM108.664 25.485V31.095C108.664 31.445 108.704 31.68 108.784 31.8C108.864 31.91 109.059 31.965 109.369 31.965L109.429 32.91C109.179 33 108.914 33.045 108.634 33.045C107.854 33.045 107.389 32.69 107.239 31.98C106.709 32.78 105.924 33.18 104.884 33.18C103.854 33.18 103.084 32.795 102.574 32.025C102.074 31.255 101.824 30.265 101.824 29.055C101.824 27.835 102.169 26.825 102.859 26.025C103.549 25.215 104.474 24.81 105.634 24.81C106.104 24.81 106.649 24.885 107.269 25.035C107.899 25.175 108.364 25.325 108.664 25.485ZM103.534 29.175C103.534 30.145 103.679 30.845 103.969 31.275C104.269 31.705 104.699 31.92 105.259 31.92C105.819 31.92 106.254 31.725 106.564 31.335C106.884 30.935 107.044 30.445 107.044 29.865V26.265C106.654 26.135 106.209 26.07 105.709 26.07C104.949 26.07 104.394 26.345 104.044 26.895C103.704 27.445 103.534 28.205 103.534 29.175ZM111.598 27.54C111.598 26.64 111.508 25.83 111.328 25.11L112.588 24.945L112.873 25.695C113.713 25.105 114.573 24.81 115.453 24.81C117.273 24.81 118.183 25.79 118.183 27.75V33H116.563V28.05C116.563 26.73 116.038 26.07 114.988 26.07C114.378 26.07 113.788 26.285 113.218 26.715V33H111.598V27.54ZM121.38 23.385L122.655 23.22V25.275H124.98L124.8 26.355H122.655V30.375C122.655 30.915 122.735 31.31 122.895 31.56C123.065 31.8 123.325 31.92 123.675 31.92C124.025 31.92 124.42 31.88 124.86 31.8L125.055 32.895C124.435 33.085 123.835 33.18 123.255 33.18C122.445 33.18 121.87 32.965 121.53 32.535C121.2 32.105 121.035 31.495 121.035 30.705V26.355H119.91V25.425L121.035 25.275L121.38 23.385ZM134.655 24.81C135.635 24.81 136.445 25.155 137.085 25.845C137.725 26.525 138.045 27.53 138.045 28.86C138.045 30.19 137.715 31.245 137.055 32.025C136.405 32.795 135.425 33.18 134.115 33.18C133.135 33.18 132.325 32.835 131.685 32.145C131.045 31.445 130.725 30.43 130.725 29.1C130.725 27.77 131.05 26.725 131.7 25.965C132.36 25.195 133.345 24.81 134.655 24.81ZM132.435 29.115C132.435 30.115 132.6 30.835 132.93 31.275C133.27 31.705 133.775 31.92 134.445 31.92C135.115 31.92 135.595 31.66 135.885 31.14C136.185 30.62 136.335 29.86 136.335 28.86C136.335 27.85 136.165 27.135 135.825 26.715C135.495 26.285 135.035 26.07 134.445 26.07C133.695 26.07 133.17 26.325 132.87 26.835C132.58 27.345 132.435 28.105 132.435 29.115ZM140.565 33.645V26.355H139.14V25.47L140.565 25.275V24.105C140.565 23.285 140.775 22.645 141.195 22.185C141.625 21.715 142.285 21.48 143.175 21.48C143.675 21.48 144.03 21.51 144.24 21.57C144.46 21.63 144.625 21.675 144.735 21.705L144.9 21.75L144.66 22.845C144.1 22.775 143.67 22.74 143.37 22.74C143.07 22.74 142.795 22.855 142.545 23.085C142.305 23.305 142.185 23.655 142.185 24.135V25.275H143.985L143.805 26.355H142.185V33.675C142.185 34.495 142.02 35.135 141.69 35.595C141.36 36.065 140.85 36.3 140.16 36.3C139.77 36.3 139.42 36.245 139.11 36.135L139.305 34.995C139.425 35.025 139.58 35.04 139.77 35.04C140.3 35.04 140.565 34.575 140.565 33.645ZM150.779 23.385L152.054 23.22V25.275H154.379L154.199 26.355H152.054V30.375C152.054 30.915 152.134 31.31 152.294 31.56C152.464 31.8 152.724 31.92 153.074 31.92C153.424 31.92 153.819 31.88 154.259 31.8L154.454 32.895C153.834 33.085 153.234 33.18 152.654 33.18C151.844 33.18 151.269 32.965 150.929 32.535C150.599 32.105 150.434 31.495 150.434 30.705V26.355H149.309V25.425L150.434 25.275L150.779 23.385ZM158.174 33H156.554V21.69L158.174 21.48V25.515C158.964 25.045 159.739 24.81 160.499 24.81C162.319 24.81 163.229 25.79 163.229 27.75V33H161.609V28.05C161.609 26.73 161.084 26.07 160.034 26.07C159.634 26.07 159.254 26.145 158.894 26.295C158.534 26.445 158.294 26.585 158.174 26.715V33ZM171.179 31.29L171.734 32.31C171.564 32.47 171.204 32.655 170.654 32.865C170.104 33.075 169.514 33.18 168.884 33.18C167.764 33.18 166.859 32.84 166.169 32.16C165.489 31.48 165.149 30.46 165.149 29.1C165.149 28.35 165.269 27.69 165.509 27.12C165.749 26.54 166.059 26.09 166.439 25.77C167.219 25.13 168.034 24.81 168.884 24.81C169.744 24.81 170.424 25.03 170.924 25.47C171.434 25.9 171.689 26.43 171.689 27.06C171.689 27.89 171.294 28.57 170.504 29.1C169.714 29.62 168.449 29.88 166.709 29.88C166.709 30.34 166.899 30.795 167.279 31.245C167.669 31.695 168.239 31.92 168.989 31.92C169.749 31.92 170.479 31.71 171.179 31.29ZM170.234 27.195C170.234 26.895 170.119 26.635 169.889 26.415C169.669 26.185 169.354 26.07 168.944 26.07C168.284 26.07 167.739 26.32 167.309 26.82C166.889 27.31 166.674 27.955 166.664 28.755C169.044 28.755 170.234 28.235 170.234 27.195ZM180.813 33V28.695L177.243 22.305L179.028 22.125L181.668 27.165L184.323 22.125L186.108 22.305L182.523 28.71V33H180.813ZM192.771 31.29L193.326 32.31C193.156 32.47 192.796 32.655 192.246 32.865C191.696 33.075 191.106 33.18 190.476 33.18C189.356 33.18 188.451 32.84 187.761 32.16C187.081 31.48 186.741 30.46 186.741 29.1C186.741 28.35 186.861 27.69 187.101 27.12C187.341 26.54 187.651 26.09 188.031 25.77C188.811 25.13 189.626 24.81 190.476 24.81C191.336 24.81 192.016 25.03 192.516 25.47C193.026 25.9 193.281 26.43 193.281 27.06C193.281 27.89 192.886 28.57 192.096 29.1C191.306 29.62 190.041 29.88 188.301 29.88C188.301 30.34 188.491 30.795 188.871 31.245C189.261 31.695 189.831 31.92 190.581 31.92C191.341 31.92 192.071 31.71 192.771 31.29ZM191.826 27.195C191.826 26.895 191.711 26.635 191.481 26.415C191.261 26.185 190.946 26.07 190.536 26.07C189.876 26.07 189.331 26.32 188.901 26.82C188.481 27.31 188.266 27.955 188.256 28.755C190.636 28.755 191.826 28.235 191.826 27.195ZM201.535 25.485V31.095C201.535 31.445 201.575 31.68 201.655 31.8C201.735 31.91 201.93 31.965 202.24 31.965L202.3 32.91C202.05 33 201.785 33.045 201.505 33.045C200.725 33.045 200.26 32.69 200.11 31.98C199.58 32.78 198.795 33.18 197.755 33.18C196.725 33.18 195.955 32.795 195.445 32.025C194.945 31.255 194.695 30.265 194.695 29.055C194.695 27.835 195.04 26.825 195.73 26.025C196.42 25.215 197.345 24.81 198.505 24.81C198.975 24.81 199.52 24.885 200.14 25.035C200.77 25.175 201.235 25.325 201.535 25.485ZM196.405 29.175C196.405 30.145 196.55 30.845 196.84 31.275C197.14 31.705 197.57 31.92 198.13 31.92C198.69 31.92 199.125 31.725 199.435 31.335C199.755 30.935 199.915 30.445 199.915 29.865V26.265C199.525 26.135 199.08 26.07 198.58 26.07C197.82 26.07 197.265 26.345 196.915 26.895C196.575 27.445 196.405 28.205 196.405 29.175ZM204.469 27.54C204.469 26.64 204.379 25.83 204.199 25.11L205.459 24.945L205.834 25.92C206.464 25.18 207.174 24.81 207.964 24.81C208.494 24.81 208.904 24.935 209.194 25.185C209.494 25.435 209.644 25.79 209.644 26.25C209.644 26.71 209.569 27.115 209.419 27.465L208.129 27.3C208.129 26.85 208.084 26.535 207.994 26.355C207.914 26.165 207.739 26.07 207.469 26.07C207.209 26.07 206.949 26.175 206.689 26.385C206.439 26.595 206.239 26.83 206.089 27.09V33H204.469V27.54Z" fill="white"/>
<circle cx="21.1983" cy="22.1987" r="12.4741" stroke="white"/>
<path d="M21.5 5L25.429 17.0922L38.1435 17.0922L27.8572 24.5656L31.7862 36.6578L21.5 29.1844L11.2138 36.6578L15.1428 24.5656L4.85651 17.0922L17.571 17.0922L21.5 5Z" fill="white"/>
</g>
<defs>
<filter id="filter0_d_353_1052" x="0.856567" y="0" width="213.143" height="48" filterUnits="userSpaceOnUse" color-interpolation-filters="sRGB">
<feFlood flood-opacity="0" result="BackgroundImageFix"/>
<feColorMatrix in="SourceAlpha" type="matrix" values="0 0 0 0 0 0 0 0 0 0 0 0 0 0 0 0 0 0 127 0" result="hardAlpha"/>
<feOffset dy="4"/>
<feGaussianBlur stdDeviation="2"/>
<feComposite in2="hardAlpha" operator="out"/>
<feColorMatrix type="matrix" values="0 0 0 0 0 0 0 0 0 0 0 0 0 0 0 0 0 0 0.25 0"/>
<feBlend mode="normal" in2="BackgroundImageFix" result="effect1_dropShadow_353_1052"/>
<feBlend mode="normal" in="SourceGraphic" in2="effect1_dropShadow_353_1052" result="shape"/>
</filter>
</defs>
</svg>
