<svg width="201" height="40" viewBox="0 0 201 40" fill="none" xmlns="http://www.w3.org/2000/svg">
<path d="M43.52 15.73L41.05 8.87L42.22 8.73L44.33 14.85L46.44 8.73L47.61 8.87L45.06 15.93C44.98 15.9567 44.8067 15.9867 44.54 16.02C44.28 16.0533 44.0633 16.07 43.89 16.07C43.7167 16.07 43.5933 15.9567 43.52 15.73ZM52.2998 10.99V14.73C52.2998 14.9633 52.3264 15.12 52.3798 15.2C52.4331 15.2733 52.5631 15.31 52.7698 15.31L52.8098 15.94C52.6431 16 52.4664 16.03 52.2798 16.03C51.7598 16.03 51.4498 15.7933 51.3498 15.32C50.9964 15.8533 50.4731 16.12 49.7798 16.12C49.0931 16.12 48.5798 15.8633 48.2398 15.35C47.9064 14.8367 47.7398 14.1767 47.7398 13.37C47.7398 12.5567 47.9698 11.8833 48.4298 11.35C48.8898 10.81 49.5064 10.54 50.2798 10.54C50.5931 10.54 50.9564 10.59 51.3698 10.69C51.7898 10.7833 52.0998 10.8833 52.2998 10.99ZM48.8798 13.45C48.8798 14.0967 48.9764 14.5633 49.1698 14.85C49.3698 15.1367 49.6564 15.28 50.0298 15.28C50.4031 15.28 50.6931 15.15 50.8998 14.89C51.1131 14.6233 51.2198 14.2967 51.2198 13.91V11.51C50.9598 11.4233 50.6631 11.38 50.3298 11.38C49.8231 11.38 49.4531 11.5633 49.2198 11.93C48.9931 12.2967 48.8798 12.8033 48.8798 13.45ZM54.3535 8.46L55.4335 8.32V14.35C55.4335 14.97 55.6102 15.28 55.9635 15.28C56.0502 15.28 56.2102 15.2567 56.4435 15.21L56.5735 15.95C56.5668 15.95 56.5368 15.96 56.4835 15.98C56.4368 16 56.3802 16.02 56.3135 16.04C56.1468 16.0933 55.9435 16.12 55.7035 16.12C55.2435 16.12 54.9035 15.9667 54.6835 15.66C54.4635 15.3467 54.3535 14.9167 54.3535 14.37V8.46ZM57.5859 8.46L58.6659 8.32V14.35C58.6659 14.97 58.8426 15.28 59.1959 15.28C59.2826 15.28 59.4426 15.2567 59.6759 15.21L59.8059 15.95C59.7993 15.95 59.7693 15.96 59.7159 15.98C59.6693 16 59.6126 16.02 59.5459 16.04C59.3793 16.0933 59.1759 16.12 58.9359 16.12C58.4759 16.12 58.1359 15.9667 57.9159 15.66C57.6959 15.3467 57.5859 14.9167 57.5859 14.37V8.46ZM64.3184 14.86L64.6884 15.54C64.575 15.6467 64.335 15.77 63.9684 15.91C63.6017 16.05 63.2084 16.12 62.7884 16.12C62.0417 16.12 61.4384 15.8933 60.9784 15.44C60.525 14.9867 60.2984 14.3067 60.2984 13.4C60.2984 12.9 60.3784 12.46 60.5384 12.08C60.6984 11.6933 60.905 11.3933 61.1584 11.18C61.6784 10.7533 62.2217 10.54 62.7884 10.54C63.3617 10.54 63.815 10.6867 64.1484 10.98C64.4884 11.2667 64.6584 11.62 64.6584 12.04C64.6584 12.5933 64.395 13.0467 63.8684 13.4C63.3417 13.7467 62.4984 13.92 61.3384 13.92C61.3384 14.2267 61.465 14.53 61.7184 14.83C61.9784 15.13 62.3584 15.28 62.8584 15.28C63.365 15.28 63.8517 15.14 64.3184 14.86ZM63.6884 12.13C63.6884 11.93 63.6117 11.7567 63.4584 11.61C63.3117 11.4567 63.1017 11.38 62.8284 11.38C62.3884 11.38 62.025 11.5467 61.7384 11.88C61.4584 12.2067 61.315 12.6367 61.3084 13.17C62.895 13.17 63.6884 12.8233 63.6884 12.13ZM66.2611 17.08C66.7144 17.2467 67.1811 17.33 67.6611 17.33C68.1411 17.33 68.5111 17.22 68.7711 17C69.0378 16.78 69.1711 16.3467 69.1711 15.7C68.7511 15.98 68.2611 16.12 67.7011 16.12C67.1411 16.12 66.7044 15.9333 66.3911 15.56C66.0778 15.18 65.9211 14.7133 65.9211 14.16V10.73L67.0011 10.59V13.96C67.0011 14.84 67.3511 15.28 68.0511 15.28C68.5911 15.28 68.9644 15.13 69.1711 14.83V10.73L70.2511 10.59V15.68C70.2511 16.4933 70.0378 17.1167 69.6111 17.55C69.1911 17.9833 68.5911 18.2 67.8111 18.2C67.3311 18.2 66.9711 18.1667 66.7311 18.1C66.4978 18.0333 66.3244 17.98 66.2111 17.94C66.1044 17.9067 66.0444 17.89 66.0311 17.89L66.2611 17.08ZM75.1343 16L75.4643 8.87C75.9176 8.78333 76.3576 8.74 76.7843 8.74C76.9176 8.74 77.0143 8.81333 77.0743 8.96L78.9843 14.18L80.8943 8.96C80.9543 8.81333 81.051 8.74 81.1843 8.74C81.6643 8.74 82.1043 8.78333 82.5043 8.87L82.8343 16H81.7443L81.5743 9.87L79.7443 15C79.1843 15.0933 78.7976 15.14 78.5843 15.14C78.371 15.14 78.2376 15.0667 78.1843 14.92L76.3943 9.87L76.2243 16H75.1343ZM86.6781 10.54C87.3315 10.54 87.8715 10.77 88.2981 11.23C88.7248 11.6833 88.9381 12.3533 88.9381 13.24C88.9381 14.1267 88.7181 14.83 88.2781 15.35C87.8448 15.8633 87.1915 16.12 86.3181 16.12C85.6648 16.12 85.1248 15.89 84.6981 15.43C84.2715 14.9633 84.0581 14.2867 84.0581 13.4C84.0581 12.5133 84.2748 11.8167 84.7081 11.31C85.1481 10.7967 85.8048 10.54 86.6781 10.54ZM85.1981 13.41C85.1981 14.0767 85.3081 14.5567 85.5281 14.85C85.7548 15.1367 86.0915 15.28 86.5381 15.28C86.9848 15.28 87.3048 15.1067 87.4981 14.76C87.6981 14.4133 87.7981 13.9067 87.7981 13.24C87.7981 12.5667 87.6848 12.09 87.4581 11.81C87.2381 11.5233 86.9315 11.38 86.5381 11.38C86.0381 11.38 85.6881 11.55 85.4881 11.89C85.2948 12.23 85.1981 12.7367 85.1981 13.41ZM90.418 12.36C90.418 11.76 90.358 11.22 90.238 10.74L91.078 10.63L91.328 11.28C91.748 10.7867 92.2213 10.54 92.748 10.54C93.1013 10.54 93.3746 10.6233 93.568 10.79C93.768 10.9567 93.868 11.1933 93.868 11.5C93.868 11.8067 93.818 12.0767 93.718 12.31L92.858 12.2C92.858 11.9 92.828 11.69 92.768 11.57C92.7146 11.4433 92.598 11.38 92.418 11.38C92.2446 11.38 92.0713 11.45 91.898 11.59C91.7313 11.73 91.598 11.8867 91.498 12.06V16H90.418V12.36ZM94.9297 12.36C94.9297 11.76 94.8697 11.22 94.7497 10.74L95.5897 10.63L95.7797 11.13C96.3397 10.7367 96.913 10.54 97.4997 10.54C98.713 10.54 99.3197 11.1933 99.3197 12.5V16H98.2397V12.7C98.2397 11.82 97.8897 11.38 97.1897 11.38C96.783 11.38 96.3897 11.5233 96.0097 11.81V16H94.9297V12.36ZM101.691 8.4C101.858 8.4 101.998 8.45333 102.111 8.56C102.224 8.66 102.281 8.81333 102.281 9.02C102.281 9.45333 102.054 9.67 101.601 9.67C101.441 9.67 101.308 9.62 101.201 9.52C101.094 9.41333 101.041 9.26 101.041 9.06C101.041 8.62 101.258 8.4 101.691 8.4ZM101.121 16V10.73L102.201 10.59V16H101.121ZM104.197 12.36C104.197 11.76 104.137 11.22 104.017 10.74L104.857 10.63L105.047 11.13C105.607 10.7367 106.181 10.54 106.767 10.54C107.981 10.54 108.587 11.1933 108.587 12.5V16H107.507V12.7C107.507 11.82 107.157 11.38 106.457 11.38C106.051 11.38 105.657 11.5233 105.277 11.81V16H104.197V12.36ZM114.429 11.02V15.68C114.429 16.4933 114.215 17.1167 113.789 17.55C113.369 17.9833 112.769 18.2 111.989 18.2C111.509 18.2 111.149 18.1667 110.909 18.1C110.675 18.0333 110.502 17.98 110.389 17.94C110.282 17.9067 110.222 17.89 110.209 17.89L110.439 17.08C110.892 17.2467 111.292 17.33 111.639 17.33C111.985 17.33 112.245 17.31 112.419 17.27C112.592 17.23 112.755 17.15 112.909 17.03C113.202 16.8033 113.349 16.31 113.349 15.55V15.39C113.229 15.5767 113.045 15.7467 112.799 15.9C112.552 16.0467 112.255 16.12 111.909 16.12C111.335 16.12 110.852 15.9033 110.459 15.47C110.065 15.0367 109.869 14.3733 109.869 13.48C109.869 12.58 110.082 11.8667 110.509 11.34C110.935 10.8067 111.579 10.54 112.439 10.54C113.112 10.54 113.775 10.7 114.429 11.02ZM111.009 13.38C111.009 14.08 111.109 14.5733 111.309 14.86C111.509 15.14 111.795 15.28 112.169 15.28C112.549 15.28 112.839 15.1467 113.039 14.88C113.245 14.6133 113.349 14.2967 113.349 13.93V11.51C113.109 11.4233 112.829 11.38 112.509 11.38C111.969 11.38 111.582 11.54 111.349 11.86C111.122 12.1733 111.009 12.68 111.009 13.38ZM118.824 15.54L119.174 14.61C119.861 14.9833 120.434 15.17 120.894 15.17C121.354 15.17 121.704 15.08 121.944 14.9C122.184 14.72 122.304 14.4733 122.304 14.16C122.304 13.8133 122.151 13.5367 121.844 13.33C121.671 13.2167 121.524 13.1333 121.404 13.08C121.291 13.0267 121.111 12.95 120.864 12.85C120.624 12.7433 120.438 12.66 120.304 12.6C120.171 12.5333 120.011 12.44 119.824 12.32C119.644 12.1933 119.504 12.0667 119.404 11.94C119.144 11.6267 119.014 11.2467 119.014 10.8C119.014 10.18 119.228 9.67667 119.654 9.29C120.088 8.90333 120.631 8.71 121.284 8.71C121.684 8.71 122.071 8.77667 122.444 8.91C122.818 9.04333 123.104 9.17667 123.304 9.31L122.904 10.18C122.251 9.84 121.741 9.67 121.374 9.67C121.008 9.67 120.714 9.76 120.494 9.94C120.274 10.1133 120.164 10.3433 120.164 10.63C120.164 10.95 120.308 11.2067 120.594 11.4C120.834 11.56 121.111 11.7067 121.424 11.84C121.738 11.9733 121.958 12.07 122.084 12.13C122.218 12.19 122.384 12.2867 122.584 12.42C122.784 12.5533 122.938 12.6867 123.044 12.82C123.311 13.1667 123.444 13.5733 123.444 14.04C123.444 14.7133 123.204 15.23 122.724 15.59C122.251 15.9433 121.628 16.12 120.854 16.12C120.081 16.12 119.404 15.9267 118.824 15.54ZM125.377 9.59L126.227 9.48V10.85H127.777L127.657 11.57H126.227V14.25C126.227 14.61 126.28 14.8733 126.387 15.04C126.5 15.2 126.674 15.28 126.907 15.28C127.14 15.28 127.404 15.2533 127.697 15.2L127.827 15.93C127.414 16.0567 127.014 16.12 126.627 16.12C126.087 16.12 125.704 15.9767 125.477 15.69C125.257 15.4033 125.147 14.9967 125.147 14.47V11.57H124.397V10.95L125.147 10.85L125.377 9.59ZM133.267 10.99V14.73C133.267 14.9633 133.293 15.12 133.347 15.2C133.4 15.2733 133.53 15.31 133.737 15.31L133.777 15.94C133.61 16 133.433 16.03 133.247 16.03C132.727 16.03 132.417 15.7933 132.317 15.32C131.963 15.8533 131.44 16.12 130.747 16.12C130.06 16.12 129.547 15.8633 129.207 15.35C128.873 14.8367 128.707 14.1767 128.707 13.37C128.707 12.5567 128.937 11.8833 129.397 11.35C129.857 10.81 130.473 10.54 131.247 10.54C131.56 10.54 131.923 10.59 132.337 10.69C132.757 10.7833 133.067 10.8833 133.267 10.99ZM129.847 13.45C129.847 14.0967 129.943 14.5633 130.137 14.85C130.337 15.1367 130.623 15.28 130.997 15.28C131.37 15.28 131.66 15.15 131.867 14.89C132.08 14.6233 132.187 14.2967 132.187 13.91V11.51C131.927 11.4233 131.63 11.38 131.297 11.38C130.79 11.38 130.42 11.5633 130.187 11.93C129.96 12.2967 129.847 12.8033 129.847 13.45ZM135.223 12.36C135.223 11.76 135.163 11.22 135.043 10.74L135.883 10.63L136.133 11.28C136.553 10.7867 137.026 10.54 137.553 10.54C137.906 10.54 138.179 10.6233 138.373 10.79C138.573 10.9567 138.673 11.1933 138.673 11.5C138.673 11.8067 138.623 12.0767 138.523 12.31L137.663 12.2C137.663 11.9 137.633 11.69 137.573 11.57C137.519 11.4433 137.403 11.38 137.223 11.38C137.049 11.38 136.876 11.45 136.703 11.59C136.536 11.73 136.403 11.8867 136.303 12.06V16H135.223V12.36Z" fill="white" fill-opacity="0.5"/>
<path d="M42.62 33V22.29C43.4 22.17 44.595 22.11 46.205 22.11C47.285 22.11 48.14 22.41 48.77 23.01C49.41 23.6 49.73 24.305 49.73 25.125C49.73 26.135 49.33 26.925 48.53 27.495C49.5 28.025 49.985 28.865 49.985 30.015C49.985 30.885 49.67 31.63 49.04 32.25C48.42 32.87 47.48 33.18 46.22 33.18C44.72 33.18 43.52 33.12 42.62 33ZM44.33 26.955H47.015C47.125 26.865 47.21 26.795 47.27 26.745C47.34 26.695 47.415 26.625 47.495 26.535C47.575 26.435 47.645 26.33 47.705 26.22C47.855 25.94 47.93 25.64 47.93 25.32C47.93 24.08 47.205 23.46 45.755 23.46C45.445 23.46 44.97 23.48 44.33 23.52V26.955ZM44.33 31.74C45.15 31.8 45.71 31.83 46.01 31.83C46.81 31.83 47.37 31.67 47.69 31.35C48.02 31.03 48.185 30.575 48.185 29.985C48.185 29.385 48.015 28.935 47.675 28.635C47.345 28.325 46.775 28.17 45.965 28.17H44.33V31.74ZM57.5498 31.29L58.1048 32.31C57.9348 32.47 57.5748 32.655 57.0248 32.865C56.4748 33.075 55.8848 33.18 55.2548 33.18C54.1348 33.18 53.2298 32.84 52.5398 32.16C51.8598 31.48 51.5198 30.46 51.5198 29.1C51.5198 28.35 51.6398 27.69 51.8798 27.12C52.1198 26.54 52.4298 26.09 52.8098 25.77C53.5898 25.13 54.4048 24.81 55.2548 24.81C56.1148 24.81 56.7948 25.03 57.2948 25.47C57.8048 25.9 58.0598 26.43 58.0598 27.06C58.0598 27.89 57.6648 28.57 56.8748 29.1C56.0848 29.62 54.8198 29.88 53.0798 29.88C53.0798 30.34 53.2698 30.795 53.6498 31.245C54.0398 31.695 54.6098 31.92 55.3598 31.92C56.1198 31.92 56.8498 31.71 57.5498 31.29ZM56.6048 27.195C56.6048 26.895 56.4898 26.635 56.2598 26.415C56.0398 26.185 55.7248 26.07 55.3148 26.07C54.6548 26.07 54.1098 26.32 53.6798 26.82C53.2598 27.31 53.0448 27.955 53.0348 28.755C55.4148 28.755 56.6048 28.235 56.6048 27.195ZM59.2639 32.595L59.6089 31.38C60.4289 31.74 61.1339 31.92 61.7239 31.92C62.7439 31.92 63.2539 31.575 63.2539 30.885C63.2539 30.345 62.7639 29.895 61.7839 29.535C61.4039 29.395 61.1189 29.285 60.9289 29.205C60.7389 29.115 60.5039 28.98 60.2239 28.8C59.6739 28.44 59.3989 27.9 59.3989 27.18C59.3989 26.45 59.6539 25.88 60.1639 25.47C60.6839 25.05 61.3839 24.84 62.2639 24.84C63.1539 24.84 63.9189 24.99 64.5589 25.29C64.6789 25.34 64.7439 25.365 64.7539 25.365L64.4389 26.58C63.7089 26.26 63.0589 26.1 62.4889 26.1C61.4889 26.1 60.9889 26.44 60.9889 27.12C60.9889 27.32 61.0389 27.475 61.1389 27.585C61.2489 27.685 61.3339 27.76 61.3939 27.81C61.4539 27.85 61.5539 27.905 61.6939 27.975C61.8339 28.035 61.9339 28.08 61.9939 28.11C62.0639 28.13 62.1889 28.175 62.3689 28.245C62.5489 28.315 62.7289 28.385 62.9089 28.455C63.0989 28.515 63.2939 28.6 63.4939 28.71C63.7039 28.82 63.9239 28.97 64.1539 29.16C64.6139 29.54 64.8439 30.12 64.8439 30.9C64.8439 31.43 64.6889 31.87 64.3789 32.22C63.8289 32.86 62.9089 33.18 61.6189 33.18C60.7589 33.18 59.9739 32.985 59.2639 32.595ZM67.663 23.385L68.938 23.22V25.275H71.263L71.083 26.355H68.938V30.375C68.938 30.915 69.018 31.31 69.178 31.56C69.348 31.8 69.608 31.92 69.958 31.92C70.308 31.92 70.703 31.88 71.143 31.8L71.338 32.895C70.718 33.085 70.118 33.18 69.538 33.18C68.728 33.18 68.153 32.965 67.813 32.535C67.483 32.105 67.318 31.495 67.318 30.705V26.355H66.193V25.425L67.318 25.275L67.663 23.385ZM77.9081 33V22.2H79.6181V26.7H84.1481V22.2H85.8581V33H84.1481V28.14H79.6181V33H77.9081ZM94.6586 25.485V31.095C94.6586 31.445 94.6986 31.68 94.7786 31.8C94.8586 31.91 95.0536 31.965 95.3636 31.965L95.4236 32.91C95.1736 33 94.9086 33.045 94.6286 33.045C93.8486 33.045 93.3836 32.69 93.2336 31.98C92.7036 32.78 91.9186 33.18 90.8786 33.18C89.8486 33.18 89.0786 32.795 88.5686 32.025C88.0686 31.255 87.8186 30.265 87.8186 29.055C87.8186 27.835 88.1636 26.825 88.8536 26.025C89.5436 25.215 90.4686 24.81 91.6286 24.81C92.0986 24.81 92.6436 24.885 93.2636 25.035C93.8936 25.175 94.3586 25.325 94.6586 25.485ZM89.5286 29.175C89.5286 30.145 89.6736 30.845 89.9636 31.275C90.2636 31.705 90.6936 31.92 91.2536 31.92C91.8136 31.92 92.2486 31.725 92.5586 31.335C92.8786 30.935 93.0386 30.445 93.0386 29.865V26.265C92.6486 26.135 92.2036 26.07 91.7036 26.07C90.9436 26.07 90.3886 26.345 90.0386 26.895C89.6986 27.445 89.5286 28.205 89.5286 29.175ZM97.5928 36.18V27.135C97.5928 26.575 97.5028 25.9 97.3228 25.11L98.5828 24.945L98.8528 25.605C99.5928 25.075 100.363 24.81 101.163 24.81C102.183 24.81 102.983 25.185 103.563 25.935C104.143 26.675 104.433 27.685 104.433 28.965C104.433 30.235 104.123 31.255 103.503 32.025C102.883 32.795 102.033 33.18 100.953 33.18C100.303 33.18 99.7228 33.045 99.2128 32.775V36.18H97.5928ZM100.758 26.07C100.288 26.07 99.7728 26.255 99.2128 26.625V31.515C99.6128 31.785 100.083 31.92 100.623 31.92C101.363 31.92 101.898 31.685 102.228 31.215C102.558 30.745 102.723 29.975 102.723 28.905C102.723 27.835 102.558 27.095 102.228 26.685C101.898 26.275 101.408 26.07 100.758 26.07ZM106.646 36.18V27.135C106.646 26.575 106.556 25.9 106.376 25.11L107.636 24.945L107.906 25.605C108.646 25.075 109.416 24.81 110.216 24.81C111.236 24.81 112.036 25.185 112.616 25.935C113.196 26.675 113.486 27.685 113.486 28.965C113.486 30.235 113.176 31.255 112.556 32.025C111.936 32.795 111.086 33.18 110.006 33.18C109.356 33.18 108.776 33.045 108.266 32.775V36.18H106.646ZM109.811 26.07C109.341 26.07 108.826 26.255 108.266 26.625V31.515C108.666 31.785 109.136 31.92 109.676 31.92C110.416 31.92 110.951 31.685 111.281 31.215C111.611 30.745 111.776 29.975 111.776 28.905C111.776 27.835 111.611 27.095 111.281 26.685C110.951 26.275 110.461 26.07 109.811 26.07ZM115.908 34.62C116.588 34.87 117.288 34.995 118.008 34.995C118.728 34.995 119.283 34.83 119.673 34.5C120.073 34.17 120.273 33.52 120.273 32.55C119.643 32.97 118.908 33.18 118.068 33.18C117.228 33.18 116.573 32.9 116.103 32.34C115.633 31.77 115.398 31.07 115.398 30.24V25.095L117.018 24.885V29.94C117.018 31.26 117.543 31.92 118.593 31.92C119.403 31.92 119.963 31.695 120.273 31.245V25.095L121.893 24.885V32.52C121.893 33.74 121.573 34.675 120.933 35.325C120.303 35.975 119.403 36.3 118.233 36.3C117.513 36.3 116.973 36.25 116.613 36.15C116.263 36.05 116.003 35.97 115.833 35.91C115.673 35.86 115.583 35.835 115.563 35.835L115.908 34.62ZM129.368 33V22.2H131.078V26.7H135.608V22.2H137.318V33H135.608V28.14H131.078V33H129.368ZM143.209 24.81C144.189 24.81 144.999 25.155 145.639 25.845C146.279 26.525 146.599 27.53 146.599 28.86C146.599 30.19 146.269 31.245 145.609 32.025C144.959 32.795 143.979 33.18 142.669 33.18C141.689 33.18 140.879 32.835 140.239 32.145C139.599 31.445 139.279 30.43 139.279 29.1C139.279 27.77 139.604 26.725 140.254 25.965C140.914 25.195 141.899 24.81 143.209 24.81ZM140.989 29.115C140.989 30.115 141.154 30.835 141.484 31.275C141.824 31.705 142.329 31.92 142.999 31.92C143.669 31.92 144.149 31.66 144.439 31.14C144.739 30.62 144.889 29.86 144.889 28.86C144.889 27.85 144.719 27.135 144.379 26.715C144.049 26.285 143.589 26.07 142.999 26.07C142.249 26.07 141.724 26.325 141.424 26.835C141.134 27.345 140.989 28.105 140.989 29.115ZM155.013 24.885V31.125C155.013 31.485 155.053 31.715 155.133 31.815C155.223 31.915 155.418 31.965 155.718 31.965L155.778 32.91C155.528 33 155.263 33.045 154.983 33.045C154.373 33.045 153.943 32.805 153.693 32.325C153.043 32.895 152.228 33.18 151.248 33.18C149.428 33.18 148.518 32.2 148.518 30.24V25.095L150.138 24.885V29.94C150.138 31.26 150.663 31.92 151.713 31.92C152.433 31.92 152.993 31.71 153.393 31.29V25.095L155.013 24.885ZM158.091 27.54C158.091 26.64 158.001 25.83 157.821 25.11L159.081 24.945L159.456 25.92C160.086 25.18 160.796 24.81 161.586 24.81C162.116 24.81 162.526 24.935 162.816 25.185C163.116 25.435 163.266 25.79 163.266 26.25C163.266 26.71 163.191 27.115 163.041 27.465L161.751 27.3C161.751 26.85 161.706 26.535 161.616 26.355C161.536 26.165 161.361 26.07 161.091 26.07C160.831 26.07 160.571 26.175 160.311 26.385C160.061 26.595 159.861 26.83 159.711 27.09V33H158.091V27.54ZM168.459 32.31L168.984 30.915C170.014 31.475 170.874 31.755 171.564 31.755C172.254 31.755 172.779 31.62 173.139 31.35C173.499 31.08 173.679 30.71 173.679 30.24C173.679 29.72 173.449 29.305 172.989 28.995C172.729 28.825 172.509 28.7 172.329 28.62C172.159 28.54 171.889 28.425 171.519 28.275C171.159 28.115 170.879 27.99 170.679 27.9C170.479 27.8 170.239 27.66 169.959 27.48C169.689 27.29 169.479 27.1 169.329 26.91C168.939 26.44 168.744 25.87 168.744 25.2C168.744 24.27 169.064 23.515 169.704 22.935C170.354 22.355 171.169 22.065 172.149 22.065C172.749 22.065 173.329 22.165 173.889 22.365C174.449 22.565 174.879 22.765 175.179 22.965L174.579 24.27C173.599 23.76 172.834 23.505 172.284 23.505C171.734 23.505 171.294 23.64 170.964 23.91C170.634 24.17 170.469 24.515 170.469 24.945C170.469 25.425 170.684 25.81 171.114 26.1C171.474 26.34 171.889 26.56 172.359 26.76C172.829 26.96 173.159 27.105 173.349 27.195C173.549 27.285 173.799 27.43 174.099 27.63C174.399 27.83 174.629 28.03 174.789 28.23C175.189 28.75 175.389 29.36 175.389 30.06C175.389 31.07 175.029 31.845 174.309 32.385C173.599 32.915 172.664 33.18 171.504 33.18C170.344 33.18 169.329 32.89 168.459 32.31ZM177.793 36.18V27.135C177.793 26.575 177.703 25.9 177.523 25.11L178.783 24.945L179.053 25.605C179.793 25.075 180.563 24.81 181.363 24.81C182.383 24.81 183.183 25.185 183.763 25.935C184.343 26.675 184.633 27.685 184.633 28.965C184.633 30.235 184.323 31.255 183.703 32.025C183.083 32.795 182.233 33.18 181.153 33.18C180.503 33.18 179.923 33.045 179.413 32.775V36.18H177.793ZM180.958 26.07C180.488 26.07 179.973 26.255 179.413 26.625V31.515C179.813 31.785 180.283 31.92 180.823 31.92C181.563 31.92 182.098 31.685 182.428 31.215C182.758 30.745 182.923 29.975 182.923 28.905C182.923 27.835 182.758 27.095 182.428 26.685C182.098 26.275 181.608 26.07 180.958 26.07ZM189.996 24.81C190.976 24.81 191.786 25.155 192.426 25.845C193.066 26.525 193.386 27.53 193.386 28.86C193.386 30.19 193.056 31.245 192.396 32.025C191.746 32.795 190.766 33.18 189.456 33.18C188.476 33.18 187.666 32.835 187.026 32.145C186.386 31.445 186.066 30.43 186.066 29.1C186.066 27.77 186.391 26.725 187.041 25.965C187.701 25.195 188.686 24.81 189.996 24.81ZM187.776 29.115C187.776 30.115 187.941 30.835 188.271 31.275C188.611 31.705 189.116 31.92 189.786 31.92C190.456 31.92 190.936 31.66 191.226 31.14C191.526 30.62 191.676 29.86 191.676 28.86C191.676 27.85 191.506 27.135 191.166 26.715C190.836 26.285 190.376 26.07 189.786 26.07C189.036 26.07 188.511 26.325 188.211 26.835C187.921 27.345 187.776 28.105 187.776 29.115ZM196.1 23.385L197.375 23.22V25.275H199.7L199.52 26.355H197.375V30.375C197.375 30.915 197.455 31.31 197.615 31.56C197.785 31.8 198.045 31.92 198.395 31.92C198.745 31.92 199.14 31.88 199.58 31.8L199.775 32.895C199.155 33.085 198.555 33.18 197.975 33.18C197.165 33.18 196.59 32.965 196.25 32.535C195.92 32.105 195.755 31.495 195.755 30.705V26.355H194.63V25.425L195.755 25.275L196.1 23.385Z" fill="white"/>
<circle cx="17.1983" cy="22.1987" r="12.4741" stroke="white"/>
<path d="M17.5 5L21.429 17.0922L34.1435 17.0922L23.8572 24.5656L27.7862 36.6578L17.5 29.1844L7.21376 36.6578L11.1428 24.5656L0.85651 17.0922L13.571 17.0922L17.5 5Z" fill="white"/>
</svg>
