<svg width="100" height="32" viewBox="0 0 100 32" fill="none" xmlns="http://www.w3.org/2000/svg">
<path fill-rule="evenodd" clip-rule="evenodd" d="M0.414551 2.04718V30.3494H13.9544C19.9086 30.3494 27.5339 26.5557 27.5339 16.1818C27.5339 4.83759 18.6704 2.04718 10.5711 2.04718H0.414551ZM10.4191 10.7896H12.1636C14.8986 10.7896 17.2288 13.1485 17.265 16.3205C17.265 16.3226 17.2651 16.3251 17.265 16.3271C17.2288 19.4991 15.1497 21.8515 12.4147 21.8515H10.4191V10.7896Z" fill="#E2E2E2"/>
<path fill-rule="evenodd" clip-rule="evenodd" d="M59.5984 2.04718V30.351H78.3395V21.4017H69.5139V2.04718H59.5984Z" fill="#E2E2E2"/>
<path fill-rule="evenodd" clip-rule="evenodd" d="M50.6934 6.34385L36.8491 15.0723L34.4375 13.4502L34.4429 13.4509L48.6035 4.4324L48.63 4.45085L42.1548 0.334938L17.4915 16.0206L42.2805 31.6651L66.7719 16.0592L59.6797 11.729L45.5611 20.6242L43.1887 19.0084L56.911 10.2906L50.6934 6.34385Z" fill="#E2E2E2"/>
<path fill-rule="evenodd" clip-rule="evenodd" d="M80.1224 2.04462V30.318H98.8635V21.4017H90.038V2.04462H80.1224Z" fill="#E2E2E2"/>
<path fill-rule="evenodd" clip-rule="evenodd" d="M94.9574 1.99977H96.6233V2.39599H96.011V4.18797H95.5697V2.39599H94.9574V1.99977Z" fill="#E2E2E2"/>
<path fill-rule="evenodd" clip-rule="evenodd" d="M97.7863 3.93004L97.2524 2.60715V4.1687H96.8414V2.00112H97.5183L97.9847 3.32024L98.451 2.00112H99.1279V4.1687H98.7169V2.60715L98.183 3.93004H97.7863Z" fill="#E2E2E2"/>
</svg>
