<svg width="210" height="32" viewBox="0 0 210 32" fill="none" xmlns="http://www.w3.org/2000/svg">
<g clip-path="url(#clip0_203_22)">
<mask id="mask0_203_22" style="mask-type:luminance" maskUnits="userSpaceOnUse" x="0" y="0" width="210" height="32">
<path d="M209.414 0.5H0.810303V31.5H209.414V0.5Z" fill="white"/>
</mask>
<g mask="url(#mask0_203_22)">
<path d="M35.8564 24.9415L30.1343 31.077C30.0105 31.2102 29.8607 31.3166 29.694 31.3893C29.5273 31.4621 29.3474 31.4998 29.1656 31.5H2.04057C1.9112 31.4999 1.78465 31.4621 1.67643 31.3912C1.56821 31.3203 1.48301 31.2194 1.43126 31.1008C1.37952 30.9823 1.36347 30.8512 1.38508 30.7236C1.4067 30.5961 1.46504 30.4776 1.55296 30.3827L7.26859 24.2473C7.39236 24.114 7.54223 24.0077 7.70892 23.9349C7.87557 23.8621 8.05547 23.8244 8.23734 23.8242H35.3623C35.4928 23.8216 35.6213 23.8575 35.7314 23.9277C35.8415 23.9978 35.9287 24.0989 35.9814 24.2184C36.0343 24.3378 36.0505 24.4702 36.0282 24.5989C36.0059 24.7276 35.9462 24.8468 35.8564 24.9415ZM30.1343 12.5835C30.0101 12.4509 29.8601 12.3449 29.6935 12.2722C29.527 12.1995 29.3473 12.1615 29.1656 12.1605H2.04057C1.9112 12.1606 1.78465 12.1984 1.67643 12.2693C1.56821 12.3402 1.48301 12.4411 1.43126 12.5597C1.37952 12.6782 1.36347 12.8093 1.38508 12.9368C1.4067 13.0644 1.46504 13.1829 1.55296 13.2778L7.26859 19.4165C7.39281 19.5491 7.54281 19.655 7.70937 19.7278C7.87593 19.8005 8.0556 19.8385 8.23734 19.8395H35.3623C35.4915 19.8388 35.6174 19.8005 35.7253 19.7294C35.8331 19.6583 35.9178 19.5573 35.9691 19.4389C36.0204 19.3204 36.0363 19.1896 36.0143 19.0623C35.9927 18.9351 35.9345 18.8169 35.8467 18.7222L30.1343 12.5835ZM2.04057 8.1757H29.1656C29.3474 8.17554 29.5273 8.13786 29.694 8.06507C29.8607 7.99232 30.0105 7.88595 30.1343 7.75268L35.8564 1.61728C35.9462 1.52251 36.0059 1.40329 36.0282 1.27461C36.0505 1.14593 36.0343 1.01354 35.9814 0.894109C35.9287 0.774675 35.8415 0.67353 35.7314 0.603401C35.6213 0.533272 35.4928 0.497292 35.3623 0.499989H8.23734C8.05547 0.50018 7.87557 0.53784 7.70892 0.610621C7.54223 0.683402 7.39236 0.789742 7.26859 0.92301L1.55296 7.05841C1.46504 7.15332 1.4067 7.27183 1.38508 7.39938C1.36347 7.52693 1.37952 7.658 1.43126 7.77658C1.48301 7.89515 1.56821 7.99606 1.67643 8.06694C1.78465 8.13786 1.9112 8.17564 2.04057 8.1757Z" fill="#E2E2E2"/>
<path d="M68.9262 13.6105H54.4143V8.8313H72.6978V4.05213H54.3659C53.7394 4.04874 53.1188 4.16874 52.5388 4.40527C51.9588 4.64184 51.4309 4.9903 50.9859 5.43079C50.5406 5.87128 50.1864 6.39518 49.9435 6.97253C49.7007 7.5499 49.5738 8.16945 49.5706 8.79578V13.6395C49.5731 14.2664 49.6991 14.8867 49.9416 15.4647C50.1841 16.0429 50.538 16.5675 50.9833 17.0087C51.4289 17.4499 51.9569 17.7989 52.5372 18.0359C53.1175 18.2728 53.7391 18.3931 54.3659 18.3896H68.8971V23.1688H49.9161V27.948H68.9262C69.5526 27.9514 70.1733 27.8314 70.7532 27.5948C71.3332 27.3583 71.8612 27.0098 72.3062 26.5693C72.7515 26.1288 73.1057 25.6049 73.3485 25.0276C73.5914 24.4502 73.7183 23.8307 73.7215 23.2043V18.3606C73.7189 17.7337 73.593 17.1135 73.3505 16.5353C73.108 15.9572 72.754 15.4326 72.3087 14.9914C71.8631 14.5503 71.3351 14.2012 70.7549 13.9643C70.1746 13.7273 69.553 13.6071 68.9262 13.6105Z" fill="#E2E2E2"/>
<path d="M97.0393 4.05208H82.4725C81.8451 4.04698 81.2228 4.16572 80.6413 4.40151C80.06 4.63731 79.5308 4.98547 79.0842 5.42616C78.6373 5.86681 78.282 6.39126 78.0386 6.96947C77.7948 7.54769 77.6675 8.1683 77.6643 8.79573V23.2043C77.6675 23.8317 77.7948 24.4523 78.0386 25.0305C78.282 25.6087 78.6373 26.1332 79.0842 26.5738C79.5308 27.0145 80.06 27.3627 80.6413 27.5985C81.2228 27.8343 81.8451 27.953 82.4725 27.9479H97.0393C97.6658 27.9513 98.2864 27.8313 98.8664 27.5948C99.4463 27.3582 99.9743 27.0097 100.419 26.5693C100.865 26.1288 101.219 25.6049 101.462 25.0275C101.704 24.4501 101.831 23.8306 101.835 23.2043V8.79573C101.831 8.1694 101.704 7.54985 101.462 6.97248C101.219 6.39513 100.865 5.87123 100.419 5.43074C99.9743 4.99025 99.4463 4.64179 98.8664 4.40523C98.2864 4.16869 97.6658 4.04869 97.0393 4.05208ZM97.0038 23.1687H82.5081V8.83125H96.9973L97.0038 23.1687Z" fill="#E2E2E2"/>
<path d="M148.06 4.05211H133.852C133.225 4.04872 132.605 4.16872 132.025 4.40525C131.445 4.64182 130.917 4.99028 130.472 5.43077C130.027 5.87126 129.672 6.39516 129.43 6.9725C129.187 7.54988 129.06 8.16943 129.057 8.79576V27.9479H133.9V20.0978H148.044V27.9479H152.888V8.79576C152.885 8.16668 152.757 7.54449 152.512 6.96498C152.267 6.38551 151.91 5.86019 151.461 5.41924C151.013 4.97833 150.481 4.63055 149.897 4.39592C149.314 4.16129 148.689 4.04446 148.06 4.05211ZM148.025 15.3187H133.881V8.83128H148.025V15.3187Z" fill="#E2E2E2"/>
<path d="M204.619 4.05213H190.411C189.784 4.04874 189.164 4.16874 188.584 4.40527C188.004 4.64184 187.476 4.9903 187.031 5.43079C186.585 5.87128 186.231 6.39518 185.988 6.97253C185.746 7.5499 185.619 8.16945 185.615 8.79578V27.948H190.459V20.0979H204.571V27.948H209.414V8.79578C209.411 8.16945 209.284 7.5499 209.041 6.97253C208.799 6.39518 208.444 5.87128 207.999 5.43079C207.554 4.9903 207.026 4.64184 206.446 4.40527C205.866 4.16874 205.245 4.04874 204.619 4.05213ZM204.571 15.3187H190.427V8.8313H204.571V15.3187Z" fill="#E2E2E2"/>
<path d="M176.477 23.1688H174.539L167.613 6.05419C167.376 5.46373 166.967 4.95769 166.44 4.601C165.913 4.24427 165.291 4.05314 164.655 4.0521H160.357C159.939 4.04997 159.525 4.13015 159.139 4.28803C158.752 4.44593 158.4 4.67843 158.103 4.97229C157.806 5.26617 157.57 5.6156 157.408 6.00071C157.247 6.38579 157.162 6.799 157.16 7.21669V27.9479H162.004V8.83127H163.941L170.865 25.9459C171.106 26.5352 171.518 27.0392 172.047 27.3935C172.576 27.7478 173.199 27.9363 173.835 27.935H178.133C178.551 27.9372 178.965 27.857 179.352 27.6991C179.739 27.5412 180.09 27.3087 180.387 27.0148C180.684 26.721 180.92 26.3715 181.082 25.9864C181.244 25.6013 181.328 25.1882 181.33 24.7704V4.0521H176.477V23.1688Z" fill="#E2E2E2"/>
<path d="M110.957 4.05209H106.113V23.2043C106.117 23.832 106.244 24.4529 106.488 25.0313C106.732 25.6097 107.087 26.1343 107.534 26.575C107.981 27.0157 108.511 27.3638 109.093 27.5994C109.674 27.835 110.297 27.9534 110.925 27.9479H125.456V23.1688H110.957V4.05209Z" fill="#E2E2E2"/>
</g>
</g>
<defs>
<clipPath id="clip0_203_22">
<rect width="208.604" height="31" fill="white" transform="translate(0.810303 0.5)"/>
</clipPath>
</defs>
</svg>
