<svg width="709" height="511" viewBox="0 0 709 511" fill="none" xmlns="http://www.w3.org/2000/svg">
<path d="M387.396 451.921C387.396 427.267 387.396 414.94 391.178 404.084C394.523 394.485 399.979 385.758 407.144 378.548C415.248 370.394 426.33 364.996 448.495 354.2L657.739 252.281L657.739 273.163C657.74 313.314 657.74 333.389 651.505 350.996C645.993 366.561 637.007 380.667 625.23 392.241C611.908 405.332 593.713 413.816 557.324 430.785L387.396 510.023L387.396 451.921Z" fill="white"/>
<path d="M320.779 451.921C320.779 427.267 320.779 414.94 316.997 404.084C313.652 394.485 308.196 385.758 301.031 378.548C292.927 370.394 281.845 364.996 259.68 354.2L50.4357 252.281L50.4356 273.163C50.4353 313.314 50.4351 333.389 56.6698 350.996C62.1818 366.561 71.1677 380.667 82.9453 392.241C96.2671 405.332 114.462 413.816 150.851 430.785L320.779 510.023L320.779 451.921Z" fill="white"/>
<path d="M657.74 200.56C657.74 175.906 657.74 163.578 653.958 152.722C650.613 143.123 645.157 134.397 637.992 127.187C629.889 119.033 618.806 113.635 596.641 102.839L387.397 0.920058L387.397 21.8016C387.396 61.9527 387.396 82.0282 393.631 99.6345C399.143 115.2 408.129 129.305 419.907 140.879C433.228 153.971 451.423 162.455 487.812 179.423L657.74 258.662L657.74 200.56Z" fill="white"/>
<path d="M50.436 200.56C50.436 175.906 50.436 163.578 54.2184 152.722C57.5629 143.123 63.0189 134.397 70.1842 127.187C78.2877 119.033 89.3701 113.635 111.535 102.839L320.779 0.920058L320.779 21.8016C320.78 61.9527 320.78 82.0282 314.545 99.6345C309.033 115.2 300.047 129.305 288.27 140.879C274.948 153.971 256.753 162.455 220.364 179.423L50.436 258.662L50.436 200.56Z" fill="white"/>
</svg>
